PathFileType	3	(X/Y/Z)	D:\minhoCalibration\240510\subject2_KPNP\preferred\preferred06.trc
DataRate	CameraRate	NumFrames	NumMarkers	Units	OrigDataRate	OrigDataStartFrame	OrigNumFrames
200.0	200.0	36	10	mm	200.0	372	188	
Frame#	Time	Left_Ankle_Outer1			Left_Ankle_Inner1			Left_Knee_Outer1			Left_Knee_Inner1			Left_Wrist1			Right_Wrist1			Right_Knee_Inner1			Right_Knee_Outer1			Right_Ankle_Inner1			Right_Ankle_Outer1			
		X1	Y1	Z1	X2	Y2	Z2	X3	Y3	Z3	X4	Y4	Z4	X5	Y5	Z5	X6	Y6	Z6	X7	Y7	Z7	X8	Y8	Z8	X9	Y9	Z9	X10	Y10	Z10	
372	1.85	-523.61639	107.78524	-725.7796	-524.54028	110.86205	-669.49591	-362.8277	520.47626	-760.79895	-388.28656	507.04807	-667.93018	-391.46417	960.94202	-836.29938	-520.0199	1149.9965	-575.63824	-361.96631	844.00513	-218.54515	-417.88748	918.26129	-196.55609	-610.63727	551.43085	-46.161495	-658.34924	621.15704	5.6918211
373	1.855	-523.43512	107.37863	-726.98694	-524.54553	110.52666	-670.78931	-362.31482	520.14355	-760.27307	-389.15799	506.80936	-667.79584	-388.38589	961.91125	-835.9798	-523.5484	1148.1285	-576.57318	-367.05884	838.71008	-219.36832	-425.02945	911.49146	-197.2822	-616.57336	538.6568	-60.934574	-666.19055	606.84839	-8.3280745
374	1.86	-523.28528	106.92514	-728.24158	-524.86652	109.97951	-672.0874	-361.84451	519.9046	-759.76483	-389.92996	506.44083	-667.69086	-385.5513	962.63837	-835.37244	-526.79889	1146.2373	-577.49304	-372.30698	833.07922	-220.41722	-432.26633	904.34241	-198.18269	-619.83508	526.44067	-78.683006	-673.88397	591.92175	-23.153671
375	1.865	-523.07416	106.44467	-729.5343	-524.49146	108.87926	-674.87207	-361.25485	519.73431	-759.3504	-390.53534	506.082	-667.71027	-382.83737	963.3623	-834.78809	-529.84363	1144.3022	-578.47321	-377.2222	827.22589	-221.69582	-439.50436	896.97943	-199.68965	-628.15808	513.41217	-90.947853	-681.60278	578.01117	-37.340649
376	1.87	-522.92975	105.89352	-730.90674	-525.25494	107.4355	-676.93372	-360.8985	519.58649	-758.92639	-391.18048	505.72806	-667.74969	-380.33514	963.95349	-834.09546	-532.64563	1142.303	-579.47577	-382.72449	821.03271	-223.10291	-446.80923	889.3656	-201.10284	-633.75769	500.91403	-106.27318	-688.95184	563.67853	-52.521107
377	1.875	-522.81433	105.33286	-732.31445	-525.32788	106.9743	-678.42847	-360.49585	519.39917	-758.58441	-391.68765	505.38705	-667.8988	-377.96674	964.56519	-833.22479	-535.24921	1140.2612	-580.47656	-388.46652	814.57837	-224.94415	-454.07614	881.57599	-202.73883	-638.54504	488.27136	-122.25672	-695.70715	549.44104	-68.226311
378	1.88	-522.69946	104.76353	-733.74707	-525.64624	107.50141	-678.48267	-360.21863	519.15106	-758.24731	-392.28363	504.96881	-668.04236	-375.40811	965.21515	-832.76941	-537.7099	1138.0957	-581.48859	-394.45477	807.91888	-226.89549	-461.33878	873.67267	-204.74437	-643.86871	476.45212	-137.13628	-702.39697	536.04614	-83.288567
379	1.885	-522.61426	104.29762	-735.39514	-525.98608	106.25298	-680.71649	-359.95206	518.89966	-758.01086	-392.99994	504.66739	-668.198	-373.17029	965.76807	-832.33777	-539.97864	1135.9257	-582.43842	-400.58539	801.0611	-229.20091	-468.60767	865.68854	-207.00003	-647.97455	465.03641	-152.97911	-708.50854	522.1297	-99.877563
380	1.89	-522.51031	103.81493	-736.93988	-526.48163	106.56996	-680.73535	-359.81638	518.63922	-757.80029	-393.66064	504.2023	-668.50079	-370.90323	966.13184	-831.80914	-542.15759	1133.7186	-583.32306	-406.74872	794.07556	-231.69353	-475.96356	857.56903	-209.68813	-649.60687	454.45013	-171.13399	-714.47626	509.20123	-115.60674
381	1.895	-522.3313	102.9977	-738.11224	-527.20972	105.58226	-682.27777	-359.79974	518.28107	-757.56201	-394.40863	503.86755	-668.65619	-368.76913	966.55682	-831.37567	-544.27496	1131.478	-584.23938	-413.16843	786.91309	-234.58311	-483.49075	849.07416	-213.09035	-655.26575	442.20135	-185.3289	-720.1582	496.00589	-131.83595
382	1.9	-522.25037	102.63532	-739.78235	-527.70831	104.16829	-685.41162	-359.2988	518.27576	-757.78625	-395.24969	503.53027	-668.91766	-366.71091	966.86395	-830.77222	-546.35864	1129.2769	-585.09082	-419.58972	779.64081	-237.67258	-491.07266	840.6192	-216.49162	-658.75641	431.33032	-201.03786	-725.88403	482.44354	-148.55028
383	1.905	-522.03241	101.92435	-740.80505	-527.68713	102.94516	-687.89044	-360.05695	517.35828	-757.18243	-396.19135	503.15887	-669.0528	-364.76276	966.94745	-830.18793	-548.48352	1127.1226	-585.96075	-426.08258	772.3656	-241.00537	-498.34912	832.2962	-220.38254	-660.19006	421.71762	-218.34863	-730.36212	470.29526	-165.49121
384	1.91	-521.93701	101.61879	-742.38885	-527.68091	104.55653	-686.94659	-360.32126	516.92419	-756.96814	-397.24789	502.7178	-669.13708	-362.62048	967.05652	-829.54846	-550.23865	1125.085	-586.43854	-432.51932	764.84851	-244.67088	-506.23929	823.54803	-224.16319	-664.4632	410.88104	-232.95825	-735.05725	458.30856	-182.23337
385	1.915	-521.73029	100.87782	-743.14868	-528.70178	102.51706	-689.52905	-360.76907	516.43164	-756.71234	-398.4191	502.28876	-669.31274	-360.84973	967.62964	-828.76422	-552.73419	1123.2029	-587.60504	-439.19836	757.29529	-248.5116	-513.83179	814.52887	-228.8989	-666.36938	400.82428	-249.89168	-740.02972	446.57809	-198.27269
386	1.92	-521.62305	100.37766	-744.29443	-529.06897	102.27878	-689.99365	-361.18155	515.94818	-756.53015	-399.39905	501.85876	-669.23193	-358.85223	967.91296	-828.13025	-555.15979	1121.2686	-588.599	-445.92493	749.43298	-252.62314	-521.42712	805.77893	-233.54982	-670.17596	390.69427	-264.51614	-744.31311	435.09628	-215.14787
387	1.925	-521.50464	100.12105	-745.63721	-529.3913	102.01183	-690.65491	-361.84247	515.30585	-756.19879	-400.83441	501.32996	-669.40289	-356.98331	968.12427	-827.84674	-557.78168	1119.3235	-589.67944	-452.45905	741.64514	-257.07587	-528.94098	797.00189	-238.4541	-672.94714	381.19037	-279.97116	-748.63116	423.57126	-231.93185
388	1.93	-521.4162	99.50853	-746.47717	-528.7431	100.84908	-693.06909	-362.26294	514.78082	-755.98492	-402.36194	500.88589	-669.56213	-354.50897	968.4942	-826.05042	-560.16321	1117.2096	-590.78961	-459.27069	733.63971	-261.84406	-536.39777	788.26434	-243.55499	-674.18683	372.82458	-296.50671	-752.75293	412.87939	-248.55157
389	1.935	-521.28271	98.730988	-746.7583	-528.87024	101.45796	-692.23914	-362.74643	514.25659	-755.65436	-403.95862	500.43674	-669.63452	-353.22659	969.75836	-826.21155	-562.73627	1114.8585	-591.97418	-466.07657	725.69519	-266.77536	-543.84442	779.63861	-248.89398	-677.54932	363.39139	-311.37216	-756.67712	402.1189	-264.88318
390	1.94	-521.43854	98.473389	-747.7926	-529.5874	100.23779	-693.21216	-363.20331	513.83893	-755.33154	-405.59479	500.02432	-669.73938	-351.22089	970.448	-825.15149	-565.29755	1112.3613	-593.20959	-472.86536	717.74219	-271.763	-551.22278	771.08954	-254.44315	-679.57843	355.01672	-326.8049	-759.84979	393.29608	-280.95724
391	1.945	-521.51251	97.901657	-748.17554	-529.77802	100.56112	-692.37305	-363.86768	513.25977	-754.91711	-407.37906	499.53772	-670.17297	-349.12619	971.15796	-823.33075	-567.93127	1109.7172	-594.5365	-479.90628	709.72906	-277.10242	-558.29547	762.90765	-260.22403	-681.93359	346.75281	-341.98044	-763.84094	382.19983	-299.50299
392	1.95	-521.66675	97.388977	-748.41956	-529.70343	98.264397	-695.09491	-364.41986	512.82812	-754.55524	-408.87656	499.04535	-670.01556	-347.01794	971.98669	-821.95178	-570.50153	1106.8016	-596.0769	-487.16483	701.79834	-282.85486	-565.79211	754.34021	-266.08258	-684.81415	338.40341	-356.53372	-767.20972	373.67188	-314.47565
393	1.955	-521.79272	96.838562	-748.68463	-529.90057	99.328552	-693.00604	-365.2485	512.289	-754.21912	-410.77997	498.73203	-670.51465	-344.91684	972.99506	-820.7735	-573.30603	1104.1193	-597.54626	-494.25745	693.9126	-288.54617	-573.2478	746.18481	-272.23401	-685.3703	331.241	-372.7478	-770.85156	364.39191	-331.57043
394	1.96	-521.97339	96.262703	-748.948	-530.06317	97.465637	-695.34503	-366.2771	511.82288	-753.95862	-412.41742	498.35431	-670.61261	-343.22824	973.90497	-819.41718	-575.96143	1101.0798	-599.14282	-501.57947	686.07477	-294.61404	-580.69653	738.1665	-278.6423	-688.62836	323.45819	-387.57803	-773.93909	356.52435	-347.42969
395	1.965	-522.09509	95.72467	-749.15839	-531.28674	96.306969	-697.72443	-367.3194	511.56436	-753.76843	-414.048	498.17465	-670.6344	-341.27628	974.92926	-818.1217	-578.65814	1098.1165	-600.82758	-508.41629	678.48792	-300.78687	-587.79358	730.13922	-285.85461	-690.51355	316.28101	-402.18088	-776.66663	348.24335	-364.66138
396	1.97	-522.25043	95.182747	-749.52106	-530.70245	97.00621	-694.06464	-368.65454	511.31128	-753.53259	-415.86032	497.97772	-670.9198	-337.87234	976.75812	-815.30487	-581.29211	1095.1646	-602.46442	-516.21375	670.78784	-307.07205	-594.47449	720.99585	-294.99622	-692.47516	308.74747	-416.77783	-779.74646	339.18756	-382.74136
397	1.975	-522.45886	94.559517	-749.89758	-531.06763	95.027275	-697.17731	-369.85541	511.21341	-753.30615	-417.79941	497.98679	-671.03955	-336.94785	977.46906	-814.664	-584.00024	1092.1453	-604.21906	-523.57715	663.32684	-313.50171	-603.32874	714.74323	-299.25888	-694.22437	301.7045	-430.73615	-782.76013	331.30939	-399.29727
398	1.98	-522.55609	94.10183	-750.53711	-532.02203	93.801697	-698.08978	-370.9433	511.05725	-753.06012	-419.77811	497.92755	-671.1806	-335.50299	978.37988	-813.26886	-586.65015	1089.1108	-605.99036	-530.94391	656.01416	-320.16177	-610.91412	707.08081	-306.92191	-695.07428	294.87878	-445.5033	-785.08673	324.1842	-415.51773
399	1.985	-522.49292	92.922783	-750.24524	-531.70496	95.165215	-695.1311	-372.15274	510.86752	-752.77496	-421.8389	497.83328	-671.44781	-333.88953	979.23065	-811.66998	-589.29242	1086.2012	-607.7149	-538.32428	648.88318	-326.98776	-617.14124	698.3446	-317.76373	-695.84033	288.69489	-459.38654	-787.23383	315.97577	-433.57684
400	1.99	-522.64606	92.155197	-750.66669	-531.52252	94.961029	-695.01672	-372.95547	510.73413	-752.49872	-424.12888	497.73242	-672.18347	-332.9454	979.91241	-810.46344	-591.78027	1083.1365	-609.53729	-545.73212	642.00323	-333.78525	-624.9693	690.89185	-325.91479	-696.79327	282.36197	-473.06091	-788.87671	308.70547	-450.67435
401	1.995	-522.8443	91.427879	-751.15247	-532.48138	92.931847	-697.88165	-374.21967	510.35385	-751.96539	-425.94482	497.74622	-671.84204	-331.72885	980.5365	-808.96991	-594.92273	1080.5696	-611.70404	-553.10437	635.28656	-340.95013	-633.9458	684.94348	-331.43045	-697.92413	275.1727	-487.02414	-790.15405	301.93646	-468.0058
402	2	-522.93231	90.170448	-750.94281	-532.60999	92.803642	-697.62793	-374.58383	510.08875	-751.70508	-427.99194	497.47	-672.10114	-330.70297	981.04303	-807.38702	-597.47083	1077.9915	-613.48315	-560.35712	628.73767	-348.03339	-641.31525	678.0415	-340.73935	-698.66943	268.88123	-500.42413	-791.59741	295.82846	-483.95602
403	2.005	-523.20642	89.850899	-751.95093	-532.98895	93.238663	-695.46387	-375.13748	509.81116	-751.43134	-429.95944	497.17612	-672.3819	-329.75977	981.37634	-805.75067	-600.06122	1075.5297	-615.30389	-567.47998	622.36353	-355.30127	-647.67493	670.39087	-352.24933	-698.70599	263.55804	-513.24658	-792.73206	289.60526	-501.15085
404	2.01	-523.40479	89.198837	-752.3028	-533.46802	92.6493	-695.70917	-375.56253	509.29611	-751.06256	-431.70959	496.62662	-672.69299	-328.92892	981.63495	-804.04401	-602.69397	1073.1237	-617.1015	-573.97046	616.30792	-362.18848	-656.0885	663.85583	-360.4758	-698.94891	257.0542	-527.21381	-789.08844	281.15247	-522.72119
405	2.015	-523.47131	88.708778	-752.5379	-533.5874	92.291336	-696.19226	-375.85025	508.70764	-750.72058	-433.24118	496.09384	-672.91675	-328.10266	981.81964	-802.2829	-605.37036	1070.913	-618.90576	-581.2558	610.22223	-370.3623	-663.83508	658.02515	-368.49301	-699.89032	251.14857	-539.992	-793.93726	277.7294	-534.25214
406	2.02	-523.61072	88.259354	-752.65057	-533.36694	92.14151	-695.60431	-375.94431	508.16928	-750.47992	-434.50128	495.58234	-673.22797	-327.5062	981.83948	-800.51575	-608.09436	1068.7559	-620.6944	-588.01349	604.34375	-378.39001	-670.7901	650.9209	-379.18201	-700.11975	245.50352	-552.87451	-793.18127	271.76743	-551.87354
407	2.025	-523.68329	87.952934	-752.80396	-534.24103	91.589554	-696.92413	-376.00772	507.7067	-750.20587	-435.36526	495.28821	-673.41406	-327.10324	981.88953	-798.67828	-610.70056	1066.3917	-622.41815	-594.65826	598.53455	-386.54785	-676.47168	643.9823	-390.94	-700.57593	239.99742	-565.17828	-793.23553	265.64621	-568.69678
